<!-- icon666.com - MILLIONS vector ICONS FREE --><svg id="Capa_1" enable-background="new 0 0 512 512" viewBox="0 0 512 512" xmlns="http://www.w3.org/2000/svg"><g><g><path d="m100 10h312c11.046 0 20 8.954 20 20v452c0 11.046-8.954 20-20 20h-312c-11.046 0-20-8.954-20-20v-452c0-11.046 8.954-20 20-20z" fill="#6d92ac"/><g fill="#fff"><path d="m120 250.025h64v40h-64z"/><path d="m224 250.025h64v40h-64z"/><path d="m328 250.025h64v40h-64z"/></g><path d="m217.151 379.185h-28.336v-28.336h-40.479v28.336h-28.336v40.479h28.336v28.336h40.479v-28.336h28.336z" fill="#ff7d97"/><path d="m284.339 421.462c-12.171 0-22.037-9.866-22.037-22.037 0-12.171 9.866-22.037 22.037-22.037 12.171 0 22.037 9.866 22.037 22.037 0 12.17-9.866 22.037-22.037 22.037z" fill="#33d6f5"/><g><path d="m155.786 210.025h200.428c19.764 0 35.786-16.022 35.786-35.786v-88.453c0-19.764-16.022-35.786-35.786-35.786h-200.428c-19.764 0-35.786 16.022-35.786 35.786v88.453c0 19.764 16.022 35.786 35.786 35.786z" fill="#33d6f5"/></g><path d="m372.488 421.462c-12.171 0-22.037-9.866-22.037-22.037 0-12.171 9.867-22.037 22.037-22.037 12.171 0 22.037 9.866 22.037 22.037.001 12.17-9.866 22.037-22.037 22.037z" fill="#ff7d97"/></g><g><path d="m412 0h-115.178c-5.522 0-10 4.477-10 10s4.478 10 10 10h115.178c5.514 0 10 4.486 10 10v452c0 5.514-4.486 10-10 10h-312c-5.514 0-10-4.486-10-10v-452c0-5.514 4.486-10 10-10h106.822c5.522 0 10-4.477 10-10s-4.478-10-10-10h-106.822c-16.542 0-30 13.458-30 30v452c0 16.542 13.458 30 30 30h312c16.542 0 30-13.458 30-30v-452c0-16.542-13.458-30-30-30z"/><path d="m356.214 40h-200.428c-25.246 0-45.786 20.54-45.786 45.786v88.454c0 25.247 20.54 45.786 45.786 45.786h200.428c25.246 0 45.786-20.54 45.786-45.786v-88.454c0-25.246-20.54-45.786-45.786-45.786zm-226.214 134.239v-88.453c0-14.219 11.567-25.786 25.786-25.786h134.461l-139.522 139.524c-11.803-2.359-20.725-12.799-20.725-25.285zm252 0c0 14.218-11.567 25.786-25.786 25.786h-177.707l140.025-140.025h37.682c14.219 0 25.786 11.567 25.786 25.786z"/><path d="m148.336 458h40.479c5.522 0 10-4.477 10-10v-18.335h18.335c5.522 0 10-4.477 10-10v-40.479c0-5.523-4.478-10-10-10h-18.335v-18.335c0-5.523-4.478-10-10-10h-40.479c-5.522 0-10 4.477-10 10v18.335h-18.336c-5.522 0-10 4.477-10 10v40.479c0 5.523 4.478 10 10 10h18.336v18.335c0 5.522 4.477 10 10 10zm-18.336-48.336v-20.479h18.336c5.522 0 10-4.477 10-10v-18.335h20.479v18.335c0 5.523 4.478 10 10 10h18.335v20.479h-18.335c-5.522 0-10 4.477-10 10v18.336h-20.479v-18.335c0-5.523-4.478-10-10-10h-18.336z"/><path d="m284.339 431.462c17.665 0 32.037-14.372 32.037-32.038s-14.372-32.038-32.037-32.038c-17.666 0-32.038 14.372-32.038 32.038s14.372 32.038 32.038 32.038zm0-44.075c6.638 0 12.037 5.4 12.037 12.038s-5.399 12.038-12.037 12.038-12.038-5.4-12.038-12.038 5.4-12.038 12.038-12.038z"/><path d="m372.488 431.462c17.666 0 32.038-14.372 32.038-32.038s-14.372-32.038-32.038-32.038c-17.665 0-32.037 14.372-32.037 32.038s14.372 32.038 32.037 32.038zm0-44.075c6.638 0 12.038 5.4 12.038 12.038s-5.4 12.038-12.038 12.038-12.037-5.4-12.037-12.038 5.4-12.038 12.037-12.038z"/><path d="m120 300.025h64c5.522 0 10-4.477 10-10v-40c0-5.523-4.478-10-10-10h-64c-5.522 0-10 4.477-10 10v40c0 5.523 4.478 10 10 10zm10-40h44v20h-44z"/><path d="m298 290.025v-40c0-5.523-4.478-10-10-10h-64c-5.522 0-10 4.477-10 10v40c0 5.523 4.478 10 10 10h64c5.522 0 10-4.477 10-10zm-20-10h-44v-20h44z"/><path d="m402 290.025v-40c0-5.523-4.478-10-10-10h-64c-5.522 0-10 4.477-10 10v40c0 5.523 4.478 10 10 10h64c5.522 0 10-4.477 10-10zm-20-10h-44v-20h44z"/><path d="m319.663 101.658-54.698 54.698c-3.905 3.905-3.905 10.237 0 14.143 1.953 1.953 4.512 2.929 7.071 2.929s5.118-.976 7.071-2.929l54.698-54.698c3.905-3.905 3.905-10.237 0-14.143-3.906-3.905-10.236-3.905-14.142 0z"/><circle cx="252.13" cy="10.002" r="10"/></g></g></svg>